<svg xmlns="http://www.w3.org/2000/svg" width="8.5" height="11.581" viewBox="0 0 8.5 11.581">
  <path id="Path_19063" data-name="Path 19063" d="M-267.988,200.005a4.293,4.293,0,0,1,3.44-4.122,4.26,4.26,0,0,1,4.992,3.342,3.967,3.967,0,0,1-.294,2.35,17.033,17.033,0,0,1-1.724,3.1c-.586.853-1.206,1.684-1.817,2.52a.382.382,0,0,1-.651.017,32.079,32.079,0,0,1-2.992-4.453,8.386,8.386,0,0,1-.843-2.053C-267.931,200.475-267.952,200.238-267.988,200.005Zm4.264-1.887a1.544,1.544,0,0,0-1.542,1.552,1.545,1.545,0,0,0,1.549,1.534,1.546,1.546,0,0,0,1.536-1.546A1.545,1.545,0,0,0-263.724,198.118Z" transform="translate(267.988 -195.802)" fill="#161616"/>
</svg>
