<svg id="icons_blacklist" data-name="icons/blacklist" xmlns="http://www.w3.org/2000/svg" xmlns:xlink="http://www.w3.org/1999/xlink" width="8.335" height="10.717" viewBox="0 0 8.335 10.717">
  <defs>
    <clipPath id="clip-path">
      <path id="Blacklist" d="M7.145,10.717H1.191a1.19,1.19,0,0,1-.819-.372A1.19,1.19,0,0,1,0,9.526V2.791c0-.077.047-.116.139-.116H2.326a.357.357,0,0,0,.349-.349V.139A.124.124,0,0,1,2.814,0H7.145a1.19,1.19,0,0,1,.819.372,1.19,1.19,0,0,1,.372.819V9.526a1.279,1.279,0,0,1-1.191,1.191ZM2.123,8.038a.361.361,0,0,0-.247.08.265.265,0,0,0-.09.208.3.3,0,0,0,.09.218.337.337,0,0,0,.247.089H3.831a.348.348,0,0,0,.236-.089.281.281,0,0,0,.1-.218.252.252,0,0,0-.1-.208.373.373,0,0,0-.236-.08ZM2.111,6.549a.317.317,0,0,0-.238.09.294.294,0,0,0,0,.417.318.318,0,0,0,.238.089H6.224a.328.328,0,0,0,.227-.089.272.272,0,0,0,0-.417.327.327,0,0,0-.227-.09Zm0-1.488a.336.336,0,0,0-.238.079.271.271,0,0,0-.087.209.3.3,0,0,0,.087.218.318.318,0,0,0,.238.089H6.224a.328.328,0,0,0,.227-.089.286.286,0,0,0,.1-.218.258.258,0,0,0-.1-.209.35.35,0,0,0-.227-.079Zm0-1.489a.342.342,0,0,0-.238.079.271.271,0,0,0-.087.209.3.3,0,0,0,.087.218.318.318,0,0,0,.238.089H6.224a.328.328,0,0,0,.227-.089.286.286,0,0,0,.1-.218.258.258,0,0,0-.1-.209.353.353,0,0,0-.227-.079Zm-.274-1.6H.535a.129.129,0,0,1-.128-.093.106.106,0,0,1,.035-.139L1.744.419A.149.149,0,0,1,1.828.392.16.16,0,0,1,1.9.407a.128.128,0,0,1,.082.128v1.3A.124.124,0,0,1,1.837,1.977Z" transform="translate(0)" fill="#161616"/>
    </clipPath>
  </defs>
  <path id="Blacklist-2" data-name="Blacklist" d="M7.145,10.717H1.191a1.19,1.19,0,0,1-.819-.372A1.19,1.19,0,0,1,0,9.526V2.791c0-.077.047-.116.139-.116H2.326a.357.357,0,0,0,.349-.349V.139A.124.124,0,0,1,2.814,0H7.145a1.19,1.19,0,0,1,.819.372,1.19,1.19,0,0,1,.372.819V9.526a1.279,1.279,0,0,1-1.191,1.191ZM2.123,8.038a.361.361,0,0,0-.247.08.265.265,0,0,0-.09.208.3.3,0,0,0,.09.218.337.337,0,0,0,.247.089H3.831a.348.348,0,0,0,.236-.089.281.281,0,0,0,.1-.218.252.252,0,0,0-.1-.208.373.373,0,0,0-.236-.08ZM2.111,6.549a.317.317,0,0,0-.238.09.294.294,0,0,0,0,.417.318.318,0,0,0,.238.089H6.224a.328.328,0,0,0,.227-.089.272.272,0,0,0,0-.417.327.327,0,0,0-.227-.09Zm0-1.488a.336.336,0,0,0-.238.079.271.271,0,0,0-.087.209.3.3,0,0,0,.087.218.318.318,0,0,0,.238.089H6.224a.328.328,0,0,0,.227-.089.286.286,0,0,0,.1-.218.258.258,0,0,0-.1-.209.35.35,0,0,0-.227-.079Zm0-1.489a.342.342,0,0,0-.238.079.271.271,0,0,0-.087.209.3.3,0,0,0,.087.218.318.318,0,0,0,.238.089H6.224a.328.328,0,0,0,.227-.089.286.286,0,0,0,.1-.218.258.258,0,0,0-.1-.209.353.353,0,0,0-.227-.079Zm-.274-1.6H.535a.129.129,0,0,1-.128-.093.106.106,0,0,1,.035-.139L1.744.419A.149.149,0,0,1,1.828.392.16.16,0,0,1,1.9.407a.128.128,0,0,1,.082.128v1.3A.124.124,0,0,1,1.837,1.977Z" transform="translate(0)" fill="#161616"/>
  <g id="Group_5141" data-name="Group 5141" transform="translate(0)" clip-path="url(#clip-path)">
    <g id="Colors_Primary" data-name="Colors/Primary" transform="translate(-3.231 -1.108)">
      <rect id="Colors_Primary_background" data-name="Colors/Primary background" width="14.449" height="13.004" transform="translate(0 0)" fill="#161616"/>
      <rect id="Rectangle_3" data-name="Rectangle 3" width="13.004" height="13.004" transform="translate(0 0)" fill="#161616"/>
    </g>
  </g>
</svg>
