<svg id="icon_sprint_" data-name="icon / sprint " xmlns="http://www.w3.org/2000/svg" width="13.082" height="13.082" viewBox="0 0 13.082 13.082">
  <g id="send-message" transform="translate(0.545 0.545)">
    <path id="Path" d="M7.422,11.992a.572.572,0,0,1-.511-.316L5.216,8.286A.573.573,0,0,1,5.257,7.7L7.993,4,4.287,6.733a.572.572,0,0,1-.581.041L.314,5.08A.571.571,0,0,1,.372,4.034l10.85-4a.571.571,0,0,1,.733.733l-4,10.85a.57.57,0,0,1-.5.372Z" transform="translate(0 0)" fill="#fff"/>
  </g>
  <rect id="Rectangle" width="13.082" height="13.082" fill="none"/>
</svg>
